<?xml version="1.0" encoding="utf-8" ?>
<svg baseProfile="full" height="616.9134295108993" version="1.1" width="592.2067147554496" xmlns="http://www.w3.org/2000/svg" xmlns:ev="http://www.w3.org/2001/xml-events" xmlns:xlink="http://www.w3.org/1999/xlink"><defs /><rect fill="white" height="100%" width="100%" x="0" y="0" /><g id="graph"><path d="M 133.75,458.45671475544964 C 192.2067147554496,492.20671475544964 329.5,516.9134295108993 295.75,458.45671475544964" fill="none" stroke="black" stroke-width="0.5" /><path d="M 295.75,458.45671475544964 C 262.0,400.0 167.5,516.9134295108993 133.75,458.45671475544964" fill="none" stroke="red" stroke-width="1.1" /><path d="M 133.75,458.45671475544964 C 100.0,400.0 237.2932852445504,492.20671475544964 295.75,458.45671475544964" fill="none" stroke="black" stroke-width="0.5" /><path d="M 295.75,458.45671475544964 C 354.20671475544964,424.70671475544964 329.5,324.9134295108992 295.75,266.45671475544964" fill="none" stroke="red" stroke-width="1.2" /><path d="M 295.75,266.45671475544964 C 262.0,208.0 354.20671475544964,192.2067147554496 295.75,158.4567147554496" fill="none" stroke="black" stroke-width="0.5" /><path d="M 295.75,158.4567147554496 C 237.2932852445504,124.70671475544961 100.0,208.0 133.75,266.45671475544964" fill="none" stroke="red" stroke-width="1.5" /><path d="M 133.75,266.45671475544964 C 167.5,324.9134295108992 262.0,100.0 295.75,158.4567147554496" fill="none" stroke="black" stroke-width="0.5" /><path d="M 295.75,158.4567147554496 C 329.5,216.91342951089922 167.5,208.0 133.75,266.45671475544964" fill="none" stroke="black" stroke-width="0.5" /><path d="M 133.75,266.45671475544964 C 100.0,324.9134295108992 237.2932852445504,300.20671475544964 295.75,266.45671475544964" fill="none" stroke="red" stroke-width="1.2" /><path d="M 295.75,266.45671475544964 C 354.20671475544964,232.7067147554496 375.2932852445504,232.70671475544958 433.75,266.45671475544964" fill="none" stroke="black" stroke-width="0.5" /><path d="M 433.75,266.45671475544964 C 492.2067147554496,300.20671475544964 492.20671475544964,424.70671475544964 433.75,458.45671475544964" fill="none" stroke="red" stroke-width="1.2" /><path d="M 433.75,458.45671475544964 C 375.29328524455036,492.20671475544964 492.20671475544964,232.70671475544964 433.75,266.45671475544964" fill="none" stroke="black" stroke-width="0.5" /><path d="M 433.75,266.45671475544964 C 375.29328524455036,300.2067147554496 467.5,400.0 433.75,458.45671475544964" fill="none" stroke="black" stroke-width="0.5" /><circle cx="433.75" cy="266.45671475544964" fill="white" r="4" stroke="black" stroke-width="0.5" /><text dominant-baseline="middle" font-size="5.2" font-weight="bold" text-anchor="middle" x="433.75" y="266.45671475544964">6</text><circle cx="295.75" cy="266.45671475544964" fill="white" r="4" stroke="black" stroke-width="0.5" /><text dominant-baseline="middle" font-size="5.2" font-weight="bold" text-anchor="middle" x="295.75" y="266.45671475544964">3</text><circle cx="433.75" cy="458.45671475544964" fill="red" r="4" stroke="black" stroke-width="0.5" /><text dominant-baseline="middle" font-size="5.2" font-weight="bold" text-anchor="middle" x="433.75" y="458.45671475544964">7</text><circle cx="295.75" cy="458.45671475544964" fill="white" r="4" stroke="black" stroke-width="0.5" /><text dominant-baseline="middle" font-size="5.2" font-weight="bold" text-anchor="middle" x="295.75" y="458.45671475544964">2</text><circle cx="295.75" cy="158.4567147554496" fill="white" r="4" stroke="black" stroke-width="0.5" /><text dominant-baseline="middle" font-size="5.2" font-weight="bold" text-anchor="middle" x="295.75" y="158.4567147554496">4</text><circle cx="133.75" cy="266.45671475544964" fill="white" r="4" stroke="black" stroke-width="0.5" /><text dominant-baseline="middle" font-size="5.2" font-weight="bold" text-anchor="middle" x="133.75" y="266.45671475544964">5</text><circle cx="133.75" cy="458.45671475544964" fill="red" r="4" stroke="black" stroke-width="0.5" /><text dominant-baseline="middle" font-size="5.2" font-weight="bold" text-anchor="middle" x="133.75" y="458.45671475544964">1</text></g></svg>